<mxfile host="app.diagrams.net" modified="2021-09-03T08:56:42.558Z" agent="5.0 (Macintosh)" etag="0CFWBNfi8HjJ07HfZBEf" version="15.0.6" type="github">
  <diagram id="SHY1QTUyX0aD2-CzkyuG" name="Page-1">
    <mxGraphModel dx="1186" dy="651" grid="1" gridSize="10" guides="1" tooltips="1" connect="1" arrows="1" fold="1" page="1" pageScale="1" pageWidth="827" pageHeight="1169" math="0" shadow="0">
      <root>
        <mxCell id="0" />
        <mxCell id="1" parent="0" />
        <mxCell id="Je3_2IPtsJitRzt7uzww-1" value="" style="shape=table;startSize=0;container=1;collapsible=0;childLayout=tableLayout;" parent="1" vertex="1">
          <mxGeometry x="90" y="140" width="950" height="370" as="geometry" />
        </mxCell>
        <mxCell id="Je3_2IPtsJitRzt7uzww-2" value="" style="shape=partialRectangle;collapsible=0;dropTarget=0;pointerEvents=0;fillColor=none;top=0;left=0;bottom=0;right=0;points=[[0,0.5],[1,0.5]];portConstraint=eastwest;" parent="Je3_2IPtsJitRzt7uzww-1" vertex="1">
          <mxGeometry width="950" height="53" as="geometry" />
        </mxCell>
        <mxCell id="Je3_2IPtsJitRzt7uzww-3" value="Item number" style="shape=partialRectangle;html=1;whiteSpace=wrap;connectable=0;overflow=hidden;fillColor=none;top=0;left=0;bottom=0;right=0;" parent="Je3_2IPtsJitRzt7uzww-2" vertex="1">
          <mxGeometry width="113" height="53" as="geometry" />
        </mxCell>
        <mxCell id="Je3_2IPtsJitRzt7uzww-4" value="Part number" style="shape=partialRectangle;html=1;whiteSpace=wrap;connectable=0;overflow=hidden;fillColor=none;top=0;left=0;bottom=0;right=0;" parent="Je3_2IPtsJitRzt7uzww-2" vertex="1">
          <mxGeometry x="113" width="114" height="53" as="geometry" />
        </mxCell>
        <mxCell id="Je3_2IPtsJitRzt7uzww-5" value="Item name" style="shape=partialRectangle;html=1;whiteSpace=wrap;connectable=0;overflow=hidden;fillColor=none;top=0;left=0;bottom=0;right=0;" parent="Je3_2IPtsJitRzt7uzww-2" vertex="1">
          <mxGeometry x="227" width="113" height="53" as="geometry" />
        </mxCell>
        <mxCell id="Je3_2IPtsJitRzt7uzww-6" value="End of life for Recycling" style="shape=partialRectangle;html=1;whiteSpace=wrap;connectable=0;overflow=hidden;fillColor=none;top=0;left=0;bottom=0;right=0;" parent="Je3_2IPtsJitRzt7uzww-2" vertex="1">
          <mxGeometry x="340" width="221" height="53" as="geometry" />
        </mxCell>
        <mxCell id="Je3_2IPtsJitRzt7uzww-7" value="End of life for disposing " style="shape=partialRectangle;html=1;whiteSpace=wrap;connectable=0;overflow=hidden;fillColor=none;top=0;left=0;bottom=0;right=0;" parent="Je3_2IPtsJitRzt7uzww-2" vertex="1">
          <mxGeometry x="561" width="179" height="53" as="geometry" />
        </mxCell>
        <mxCell id="Je3_2IPtsJitRzt7uzww-8" value="End of life for onditionally recycling" style="shape=partialRectangle;html=1;whiteSpace=wrap;connectable=0;overflow=hidden;fillColor=none;top=0;left=0;bottom=0;right=0;" parent="Je3_2IPtsJitRzt7uzww-2" vertex="1">
          <mxGeometry x="740" width="210" height="53" as="geometry" />
        </mxCell>
        <mxCell id="Je3_2IPtsJitRzt7uzww-14" style="shape=partialRectangle;collapsible=0;dropTarget=0;pointerEvents=0;fillColor=none;top=0;left=0;bottom=0;right=0;points=[[0,0.5],[1,0.5]];portConstraint=eastwest;" parent="Je3_2IPtsJitRzt7uzww-1" vertex="1">
          <mxGeometry y="53" width="950" height="53" as="geometry" />
        </mxCell>
        <mxCell id="Je3_2IPtsJitRzt7uzww-15" value="1" style="shape=partialRectangle;html=1;whiteSpace=wrap;connectable=0;overflow=hidden;fillColor=none;top=0;left=0;bottom=0;right=0;" parent="Je3_2IPtsJitRzt7uzww-14" vertex="1">
          <mxGeometry width="113" height="53" as="geometry" />
        </mxCell>
        <mxCell id="Je3_2IPtsJitRzt7uzww-16" style="shape=partialRectangle;html=1;whiteSpace=wrap;connectable=0;overflow=hidden;fillColor=none;top=0;left=0;bottom=0;right=0;" parent="Je3_2IPtsJitRzt7uzww-14" vertex="1">
          <mxGeometry x="113" width="114" height="53" as="geometry" />
        </mxCell>
        <mxCell id="Je3_2IPtsJitRzt7uzww-17" style="shape=partialRectangle;html=1;whiteSpace=wrap;connectable=0;overflow=hidden;fillColor=none;top=0;left=0;bottom=0;right=0;" parent="Je3_2IPtsJitRzt7uzww-14" vertex="1">
          <mxGeometry x="227" width="113" height="53" as="geometry" />
        </mxCell>
        <mxCell id="Je3_2IPtsJitRzt7uzww-18" style="shape=partialRectangle;html=1;whiteSpace=wrap;connectable=0;overflow=hidden;fillColor=none;top=0;left=0;bottom=0;right=0;" parent="Je3_2IPtsJitRzt7uzww-14" vertex="1">
          <mxGeometry x="340" width="221" height="53" as="geometry" />
        </mxCell>
        <mxCell id="Je3_2IPtsJitRzt7uzww-19" value="" style="shape=partialRectangle;html=1;whiteSpace=wrap;connectable=0;overflow=hidden;fillColor=none;top=0;left=0;bottom=0;right=0;" parent="Je3_2IPtsJitRzt7uzww-14" vertex="1">
          <mxGeometry x="561" width="179" height="53" as="geometry" />
        </mxCell>
        <mxCell id="Je3_2IPtsJitRzt7uzww-20" style="shape=partialRectangle;html=1;whiteSpace=wrap;connectable=0;overflow=hidden;fillColor=none;top=0;left=0;bottom=0;right=0;" parent="Je3_2IPtsJitRzt7uzww-14" vertex="1">
          <mxGeometry x="740" width="210" height="53" as="geometry" />
        </mxCell>
        <mxCell id="Je3_2IPtsJitRzt7uzww-26" style="shape=partialRectangle;collapsible=0;dropTarget=0;pointerEvents=0;fillColor=none;top=0;left=0;bottom=0;right=0;points=[[0,0.5],[1,0.5]];portConstraint=eastwest;" parent="Je3_2IPtsJitRzt7uzww-1" vertex="1">
          <mxGeometry y="106" width="950" height="53" as="geometry" />
        </mxCell>
        <mxCell id="Je3_2IPtsJitRzt7uzww-27" value="2" style="shape=partialRectangle;html=1;whiteSpace=wrap;connectable=0;overflow=hidden;fillColor=none;top=0;left=0;bottom=0;right=0;" parent="Je3_2IPtsJitRzt7uzww-26" vertex="1">
          <mxGeometry width="113" height="53" as="geometry" />
        </mxCell>
        <mxCell id="Je3_2IPtsJitRzt7uzww-28" style="shape=partialRectangle;html=1;whiteSpace=wrap;connectable=0;overflow=hidden;fillColor=none;top=0;left=0;bottom=0;right=0;" parent="Je3_2IPtsJitRzt7uzww-26" vertex="1">
          <mxGeometry x="113" width="114" height="53" as="geometry" />
        </mxCell>
        <mxCell id="Je3_2IPtsJitRzt7uzww-29" style="shape=partialRectangle;html=1;whiteSpace=wrap;connectable=0;overflow=hidden;fillColor=none;top=0;left=0;bottom=0;right=0;" parent="Je3_2IPtsJitRzt7uzww-26" vertex="1">
          <mxGeometry x="227" width="113" height="53" as="geometry" />
        </mxCell>
        <mxCell id="Je3_2IPtsJitRzt7uzww-30" style="shape=partialRectangle;html=1;whiteSpace=wrap;connectable=0;overflow=hidden;fillColor=none;top=0;left=0;bottom=0;right=0;" parent="Je3_2IPtsJitRzt7uzww-26" vertex="1">
          <mxGeometry x="340" width="221" height="53" as="geometry" />
        </mxCell>
        <mxCell id="Je3_2IPtsJitRzt7uzww-31" style="shape=partialRectangle;html=1;whiteSpace=wrap;connectable=0;overflow=hidden;fillColor=none;top=0;left=0;bottom=0;right=0;" parent="Je3_2IPtsJitRzt7uzww-26" vertex="1">
          <mxGeometry x="561" width="179" height="53" as="geometry" />
        </mxCell>
        <mxCell id="Je3_2IPtsJitRzt7uzww-32" style="shape=partialRectangle;html=1;whiteSpace=wrap;connectable=0;overflow=hidden;fillColor=none;top=0;left=0;bottom=0;right=0;" parent="Je3_2IPtsJitRzt7uzww-26" vertex="1">
          <mxGeometry x="740" width="210" height="53" as="geometry" />
        </mxCell>
        <mxCell id="Je3_2IPtsJitRzt7uzww-38" value="" style="shape=partialRectangle;collapsible=0;dropTarget=0;pointerEvents=0;fillColor=none;top=0;left=0;bottom=0;right=0;points=[[0,0.5],[1,0.5]];portConstraint=eastwest;" parent="Je3_2IPtsJitRzt7uzww-1" vertex="1">
          <mxGeometry y="159" width="950" height="52" as="geometry" />
        </mxCell>
        <mxCell id="Je3_2IPtsJitRzt7uzww-39" value="3" style="shape=partialRectangle;html=1;whiteSpace=wrap;connectable=0;overflow=hidden;fillColor=none;top=0;left=0;bottom=0;right=0;" parent="Je3_2IPtsJitRzt7uzww-38" vertex="1">
          <mxGeometry width="113" height="52" as="geometry" />
        </mxCell>
        <mxCell id="Je3_2IPtsJitRzt7uzww-40" value="" style="shape=partialRectangle;html=1;whiteSpace=wrap;connectable=0;overflow=hidden;fillColor=none;top=0;left=0;bottom=0;right=0;" parent="Je3_2IPtsJitRzt7uzww-38" vertex="1">
          <mxGeometry x="113" width="114" height="52" as="geometry" />
        </mxCell>
        <mxCell id="Je3_2IPtsJitRzt7uzww-41" value="" style="shape=partialRectangle;html=1;whiteSpace=wrap;connectable=0;overflow=hidden;fillColor=none;top=0;left=0;bottom=0;right=0;" parent="Je3_2IPtsJitRzt7uzww-38" vertex="1">
          <mxGeometry x="227" width="113" height="52" as="geometry" />
        </mxCell>
        <mxCell id="Je3_2IPtsJitRzt7uzww-42" value="" style="shape=partialRectangle;html=1;whiteSpace=wrap;connectable=0;overflow=hidden;fillColor=none;top=0;left=0;bottom=0;right=0;" parent="Je3_2IPtsJitRzt7uzww-38" vertex="1">
          <mxGeometry x="340" width="221" height="52" as="geometry" />
        </mxCell>
        <mxCell id="Je3_2IPtsJitRzt7uzww-43" value="" style="shape=partialRectangle;html=1;whiteSpace=wrap;connectable=0;overflow=hidden;fillColor=none;top=0;left=0;bottom=0;right=0;" parent="Je3_2IPtsJitRzt7uzww-38" vertex="1">
          <mxGeometry x="561" width="179" height="52" as="geometry" />
        </mxCell>
        <mxCell id="Je3_2IPtsJitRzt7uzww-44" value="" style="shape=partialRectangle;html=1;whiteSpace=wrap;connectable=0;overflow=hidden;fillColor=none;top=0;left=0;bottom=0;right=0;" parent="Je3_2IPtsJitRzt7uzww-38" vertex="1">
          <mxGeometry x="740" width="210" height="52" as="geometry" />
        </mxCell>
        <mxCell id="Je3_2IPtsJitRzt7uzww-50" value="" style="shape=partialRectangle;collapsible=0;dropTarget=0;pointerEvents=0;fillColor=none;top=0;left=0;bottom=0;right=0;points=[[0,0.5],[1,0.5]];portConstraint=eastwest;" parent="Je3_2IPtsJitRzt7uzww-1" vertex="1">
          <mxGeometry y="211" width="950" height="53" as="geometry" />
        </mxCell>
        <mxCell id="Je3_2IPtsJitRzt7uzww-51" value="4" style="shape=partialRectangle;html=1;whiteSpace=wrap;connectable=0;overflow=hidden;fillColor=none;top=0;left=0;bottom=0;right=0;" parent="Je3_2IPtsJitRzt7uzww-50" vertex="1">
          <mxGeometry width="113" height="53" as="geometry" />
        </mxCell>
        <mxCell id="Je3_2IPtsJitRzt7uzww-52" value="" style="shape=partialRectangle;html=1;whiteSpace=wrap;connectable=0;overflow=hidden;fillColor=none;top=0;left=0;bottom=0;right=0;" parent="Je3_2IPtsJitRzt7uzww-50" vertex="1">
          <mxGeometry x="113" width="114" height="53" as="geometry" />
        </mxCell>
        <mxCell id="Je3_2IPtsJitRzt7uzww-53" value="" style="shape=partialRectangle;html=1;whiteSpace=wrap;connectable=0;overflow=hidden;fillColor=none;top=0;left=0;bottom=0;right=0;" parent="Je3_2IPtsJitRzt7uzww-50" vertex="1">
          <mxGeometry x="227" width="113" height="53" as="geometry" />
        </mxCell>
        <mxCell id="Je3_2IPtsJitRzt7uzww-54" value="" style="shape=partialRectangle;html=1;whiteSpace=wrap;connectable=0;overflow=hidden;fillColor=none;top=0;left=0;bottom=0;right=0;" parent="Je3_2IPtsJitRzt7uzww-50" vertex="1">
          <mxGeometry x="340" width="221" height="53" as="geometry" />
        </mxCell>
        <mxCell id="Je3_2IPtsJitRzt7uzww-55" value="" style="shape=partialRectangle;html=1;whiteSpace=wrap;connectable=0;overflow=hidden;fillColor=none;top=0;left=0;bottom=0;right=0;" parent="Je3_2IPtsJitRzt7uzww-50" vertex="1">
          <mxGeometry x="561" width="179" height="53" as="geometry" />
        </mxCell>
        <mxCell id="Je3_2IPtsJitRzt7uzww-56" value="" style="shape=partialRectangle;html=1;whiteSpace=wrap;connectable=0;overflow=hidden;fillColor=none;top=0;left=0;bottom=0;right=0;" parent="Je3_2IPtsJitRzt7uzww-50" vertex="1">
          <mxGeometry x="740" width="210" height="53" as="geometry" />
        </mxCell>
        <mxCell id="Je3_2IPtsJitRzt7uzww-62" value="" style="shape=partialRectangle;collapsible=0;dropTarget=0;pointerEvents=0;fillColor=none;top=0;left=0;bottom=0;right=0;points=[[0,0.5],[1,0.5]];portConstraint=eastwest;" parent="Je3_2IPtsJitRzt7uzww-1" vertex="1">
          <mxGeometry y="264" width="950" height="53" as="geometry" />
        </mxCell>
        <mxCell id="Je3_2IPtsJitRzt7uzww-63" value="5" style="shape=partialRectangle;html=1;whiteSpace=wrap;connectable=0;overflow=hidden;fillColor=none;top=0;left=0;bottom=0;right=0;" parent="Je3_2IPtsJitRzt7uzww-62" vertex="1">
          <mxGeometry width="113" height="53" as="geometry" />
        </mxCell>
        <mxCell id="Je3_2IPtsJitRzt7uzww-64" value="" style="shape=partialRectangle;html=1;whiteSpace=wrap;connectable=0;overflow=hidden;fillColor=none;top=0;left=0;bottom=0;right=0;" parent="Je3_2IPtsJitRzt7uzww-62" vertex="1">
          <mxGeometry x="113" width="114" height="53" as="geometry" />
        </mxCell>
        <mxCell id="Je3_2IPtsJitRzt7uzww-65" value="" style="shape=partialRectangle;html=1;whiteSpace=wrap;connectable=0;overflow=hidden;fillColor=none;top=0;left=0;bottom=0;right=0;" parent="Je3_2IPtsJitRzt7uzww-62" vertex="1">
          <mxGeometry x="227" width="113" height="53" as="geometry" />
        </mxCell>
        <mxCell id="Je3_2IPtsJitRzt7uzww-66" value="" style="shape=partialRectangle;html=1;whiteSpace=wrap;connectable=0;overflow=hidden;fillColor=none;top=0;left=0;bottom=0;right=0;" parent="Je3_2IPtsJitRzt7uzww-62" vertex="1">
          <mxGeometry x="340" width="221" height="53" as="geometry" />
        </mxCell>
        <mxCell id="Je3_2IPtsJitRzt7uzww-67" value="" style="shape=partialRectangle;html=1;whiteSpace=wrap;connectable=0;overflow=hidden;fillColor=none;top=0;left=0;bottom=0;right=0;" parent="Je3_2IPtsJitRzt7uzww-62" vertex="1">
          <mxGeometry x="561" width="179" height="53" as="geometry" />
        </mxCell>
        <mxCell id="Je3_2IPtsJitRzt7uzww-68" value="" style="shape=partialRectangle;html=1;whiteSpace=wrap;connectable=0;overflow=hidden;fillColor=none;top=0;left=0;bottom=0;right=0;" parent="Je3_2IPtsJitRzt7uzww-62" vertex="1">
          <mxGeometry x="740" width="210" height="53" as="geometry" />
        </mxCell>
        <mxCell id="Je3_2IPtsJitRzt7uzww-74" value="" style="shape=partialRectangle;collapsible=0;dropTarget=0;pointerEvents=0;fillColor=none;top=0;left=0;bottom=0;right=0;points=[[0,0.5],[1,0.5]];portConstraint=eastwest;" parent="Je3_2IPtsJitRzt7uzww-1" vertex="1">
          <mxGeometry y="317" width="950" height="53" as="geometry" />
        </mxCell>
        <mxCell id="Je3_2IPtsJitRzt7uzww-75" value="6" style="shape=partialRectangle;html=1;whiteSpace=wrap;connectable=0;overflow=hidden;fillColor=none;top=0;left=0;bottom=0;right=0;" parent="Je3_2IPtsJitRzt7uzww-74" vertex="1">
          <mxGeometry width="113" height="53" as="geometry" />
        </mxCell>
        <mxCell id="Je3_2IPtsJitRzt7uzww-76" value="" style="shape=partialRectangle;html=1;whiteSpace=wrap;connectable=0;overflow=hidden;fillColor=none;top=0;left=0;bottom=0;right=0;" parent="Je3_2IPtsJitRzt7uzww-74" vertex="1">
          <mxGeometry x="113" width="114" height="53" as="geometry" />
        </mxCell>
        <mxCell id="Je3_2IPtsJitRzt7uzww-77" value="" style="shape=partialRectangle;html=1;whiteSpace=wrap;connectable=0;overflow=hidden;fillColor=none;top=0;left=0;bottom=0;right=0;" parent="Je3_2IPtsJitRzt7uzww-74" vertex="1">
          <mxGeometry x="227" width="113" height="53" as="geometry" />
        </mxCell>
        <mxCell id="Je3_2IPtsJitRzt7uzww-78" value="" style="shape=partialRectangle;html=1;whiteSpace=wrap;connectable=0;overflow=hidden;fillColor=none;top=0;left=0;bottom=0;right=0;" parent="Je3_2IPtsJitRzt7uzww-74" vertex="1">
          <mxGeometry x="340" width="221" height="53" as="geometry" />
        </mxCell>
        <mxCell id="Je3_2IPtsJitRzt7uzww-79" value="" style="shape=partialRectangle;html=1;whiteSpace=wrap;connectable=0;overflow=hidden;fillColor=none;top=0;left=0;bottom=0;right=0;" parent="Je3_2IPtsJitRzt7uzww-74" vertex="1">
          <mxGeometry x="561" width="179" height="53" as="geometry" />
        </mxCell>
        <mxCell id="Je3_2IPtsJitRzt7uzww-80" value="" style="shape=partialRectangle;html=1;whiteSpace=wrap;connectable=0;overflow=hidden;fillColor=none;top=0;left=0;bottom=0;right=0;" parent="Je3_2IPtsJitRzt7uzww-74" vertex="1">
          <mxGeometry x="740" width="210" height="53" as="geometry" />
        </mxCell>
      </root>
    </mxGraphModel>
  </diagram>
</mxfile>
